<svg xmlns="http://www.w3.org/2000/svg" width="119.982" height="34.909" viewBox="0 0 119.982 34.909">
  <g id="logo" transform="translate(0 -0.021)">
    <path id="Path_1" data-name="Path 1" d="M0,10.215V10.3L20.2,19.8l20.277-9.524v-.024L20.2.723Zm7.284.044,12.922-6.07,12.922,6.07L20.2,16.329l-12.92-6.07ZM20.2,23.482,0,14.132V17.59l20.2,9.372,20.277-9.4V14.1L20.205,23.482Zm0,7.014L0,21.145V24.6l20.2,9.373,20.277-9.4V21.113L20.205,30.5Z" fill="#fff" fill-rule="evenodd"/>
    <g id="Group_1" data-name="Group 1" transform="translate(52.048)">
      <path id="Path_2" data-name="Path 2" d="M63.3,17.46a5.856,5.856,0,0,0-1.562-4.03,5.247,5.247,0,0,0-1.69-1.208,5.092,5.092,0,0,0-4.123,0A5.246,5.246,0,0,0,54.23,13.43a5.978,5.978,0,0,0,0,8.059A5.246,5.246,0,0,0,55.92,22.7a5.1,5.1,0,0,0,4.123,0,5.247,5.247,0,0,0,1.691-1.208,5.856,5.856,0,0,0,1.562-4.03Zm4.638,0a9.691,9.691,0,0,1-.773,3.883,9.468,9.468,0,0,1-2.126,3.095A10.135,10.135,0,0,1,61.863,26.5a10,10,0,0,1-3.881.757,9.878,9.878,0,0,1-3.865-.757,10.021,10.021,0,0,1-3.156-2.08,9.647,9.647,0,0,1-2.9-6.962,9.36,9.36,0,0,1,.79-3.82,10.063,10.063,0,0,1,2.141-3.126,9.9,9.9,0,0,1,6.989-2.852,9.988,9.988,0,0,1,3.88.757,10.115,10.115,0,0,1,3.173,2.063,9.426,9.426,0,0,1,2.126,3.11,9.722,9.722,0,0,1,.773,3.868ZM46.452,26.678a6.217,6.217,0,0,1-1.24.42,6.333,6.333,0,0,1-1.433.16,7.114,7.114,0,0,1-1.98-.274,4.34,4.34,0,0,1-1.66-.886,4.283,4.283,0,0,1-1.127-1.6,6.033,6.033,0,0,1-.418-2.369V.021h4.734V21.327a2.147,2.147,0,0,0,.467,1.6,1.574,1.574,0,0,0,1.111.435,2.79,2.79,0,0,0,1.546-.483v3.8ZM36.5,8.112,28.126,30.256a7.541,7.541,0,0,1-2.447,3.578,5.992,5.992,0,0,1-3.607,1.1,5.744,5.744,0,0,1-1.45-.194l-1.546-4.319a6.144,6.144,0,0,0,1.128.4,4.52,4.52,0,0,0,1.095.145,4.05,4.05,0,0,0,2-.5,3.235,3.235,0,0,0,1.385-1.853l.644-1.87L18.142,8.112H23.2L27.483,20.1l4.026-11.99H36.5Zm-19.485-2.8H4.905V11.3h11.95v4.061H4.9v11.41H.01V1.022h17V5.309Z" fill="#fff" fill-rule="evenodd"/>
    </g>
  </g>
</svg>
